<?xml version="1.0" encoding="UTF-8"?>
<svg xmlns="http://www.w3.org/2000/svg" xmlns:xlink="http://www.w3.org/1999/xlink" width="90px" height="90px" viewBox="0 0 90 90" version="1.1">
<g id="surface1">
<path style=" stroke:none;fill-rule:nonzero;fill:rgb(0%,0%,0%);fill-opacity:1;" d="M 0 22.5 C 0 16.289062 5.039062 11.25 11.25 11.25 L 78.75 11.25 C 84.960938 11.25 90 16.289062 90 22.5 L 90 67.5 C 90 73.710938 84.960938 78.75 78.75 78.75 L 11.25 78.75 C 5.039062 78.75 0 73.710938 0 67.5 Z M 11.25 16.875 C 8.140625 16.875 5.625 19.390625 5.625 22.5 L 5.625 23.71875 L 45 47.34375 L 84.375 23.71875 L 84.375 22.5 C 84.375 19.390625 81.859375 16.875 78.75 16.875 Z M 84.375 30.28125 L 57.609375 46.339844 L 84.375 62.519531 Z M 84.183594 68.964844 L 52.152344 49.609375 L 45 53.90625 L 37.84375 49.609375 L 5.816406 68.960938 C 6.480469 71.417969 8.703125 73.125 11.25 73.125 L 78.75 73.125 C 81.292969 73.125 83.519531 71.421875 84.183594 68.964844 Z M 5.625 62.519531 L 32.390625 46.339844 L 5.625 30.28125 Z M 5.625 62.519531 "/>
</g>
</svg>
